<?xml version="1.0" encoding="iso-8859-1"?>
<!-- Uploaded to: SVG Repo, www.svgrepo.com, Generator: SVG Repo Mixer Tools -->
<svg fill="#000000" height="800px" width="800px" version="1.1" id="Layer_1" xmlns="http://www.w3.org/2000/svg" xmlns:xlink="http://www.w3.org/1999/xlink" 
	 viewBox="0 0 512.001 512.001" xml:space="preserve">
<g>
	<g>
		<path d="M253.644,370.616H152.488c-8.506,0-15.402,6.895-15.402,15.402v88.669c0,20.608,16.705,37.314,37.314,37.314h57.333
			c20.608,0,37.314-16.705,37.314-37.314v-88.669C269.046,377.512,262.15,370.616,253.644,370.616z"/>
	</g>
</g>
<g>
	<g>
		<path d="M439.765,186.492l-68.404-82.832c-6.953-8.422-17.206-13.252-28.129-13.252h-74.186V37.314
			C269.046,16.739,252.307,0,231.732,0h-57.333c-20.575,0-37.314,16.739-37.314,37.314v53.096h-36.708
			c-20.115,0-36.479,16.365-36.479,36.479v165.667c0,20.115,16.365,36.479,36.479,36.479h36.71v0.122h131.96v-0.122h74.186
			c10.922,0,21.175-4.83,28.128-13.25l68.405-82.833C450.882,219.492,450.882,199.952,439.765,186.492z"/>
	</g>
</g>
</svg>